<svg width="11" height="13" viewBox="0 0 11 13" fill="none" xmlns="http://www.w3.org/2000/svg">
<path d="M3.45889 7.4719C3.55056 7.4719 3.63611 7.46571 3.72167 7.45333C4.00889 8.16524 4.69944 8.66667 5.5 8.66667C6.30056 8.66667 6.99111 8.16524 7.27833 7.45333C7.36389 7.46571 7.45556 7.4719 7.54111 7.4719C8.59833 7.4719 9.46 6.59905 9.46 5.5281C9.46 5.08857 9.30722 4.66762 9.05056 4.33333C9.31333 3.99905 9.46 3.5781 9.46 3.13857C9.46 2.06762 8.59833 1.19476 7.54111 1.19476C7.44944 1.19476 7.36389 1.20095 7.27833 1.21333C6.99111 0.501429 6.30056 0 5.5 0C4.69944 0 4.00889 0.501429 3.72167 1.21333C3.63611 1.20095 3.54444 1.19476 3.45889 1.19476C2.40167 1.19476 1.54 2.06762 1.54 3.13857C1.54 3.5781 1.69278 3.99905 1.94944 4.33333C1.68667 4.66762 1.53389 5.08857 1.53389 5.5281C1.53389 6.59905 2.39556 7.4719 3.45889 7.4719ZM5.5 7.42857C5.12111 7.42857 4.81556 7.12524 4.80333 6.74762L4.87667 6.07286C5.07222 6.14714 5.28 6.19048 5.5 6.19048C5.72 6.19048 5.93389 6.14714 6.12944 6.07286L6.19667 6.74762C6.18444 7.12524 5.87889 7.42857 5.5 7.42857ZM7.54111 6.23381C7.39444 6.23381 7.26 6.19048 7.15 6.11L6.655 5.75714C6.99111 5.47857 7.22944 5.08238 7.30278 4.62429L7.84056 4.88429C8.085 5.0019 8.24389 5.24952 8.24389 5.5219C8.24389 5.9181 7.92611 6.23381 7.54111 6.23381ZM7.14389 2.55667C7.26611 2.47619 7.40056 2.43286 7.54111 2.43286C7.92611 2.43286 8.23778 2.74857 8.23778 3.13857C8.23778 3.41095 8.085 3.65238 7.83444 3.77619L7.29667 4.03619C7.22333 3.5781 6.985 3.1819 6.64278 2.90333L7.14389 2.55667ZM5.5 1.2381C5.87889 1.2381 6.18444 1.54143 6.19667 1.91905L6.12944 2.59381C5.93389 2.51952 5.72 2.47619 5.5 2.47619C5.28 2.47619 5.07222 2.51952 4.87667 2.59381L4.80333 1.91905C4.81556 1.54143 5.12111 1.2381 5.5 1.2381ZM3.45889 2.43286C3.60556 2.43286 3.74 2.47619 3.85 2.55667L4.345 2.90333C4.00889 3.1819 3.77056 3.5781 3.69722 4.03619L3.15944 3.77619C2.915 3.65238 2.75611 3.41095 2.75611 3.13857C2.75611 2.74857 3.07389 2.43286 3.45889 2.43286ZM3.15944 4.89048L3.69722 4.63048C3.77056 5.08857 4.00889 5.48476 4.35111 5.76333L3.85611 6.10381C3.73389 6.18429 3.59944 6.22762 3.45889 6.22762C3.07389 6.22762 2.76222 5.9119 2.76222 5.5219C2.75611 5.25571 2.915 5.01429 3.15944 4.89048ZM5.5 13C8.53722 13 11 10.5052 11 7.42857C7.96278 7.42857 5.5 9.92333 5.5 13ZM6.99111 11.4895C7.425 10.3133 8.34778 9.37238 9.50889 8.93905C9.075 10.1152 8.15222 11.05 6.99111 11.4895ZM0 7.42857C0 10.5052 2.46278 13 5.5 13C5.5 9.92333 3.03722 7.42857 0 7.42857ZM1.49111 8.93905C2.65222 9.37857 3.58111 10.3133 4.00889 11.4895C2.84778 11.05 1.925 10.1152 1.49111 8.93905Z" fill="#6D6D6D"/>
</svg>
