<svg width="10" height="12" viewBox="0 0 10 12" fill="none" xmlns="http://www.w3.org/2000/svg">
<path d="M8.33407 2.2299L7.70475 1.61856L4.44052 4.78955V5.40661H5.07572L8.33407 2.2299ZM7.05779 0.990071L7.8165 0.253029C7.89801 0.172874 7.99509 0.109235 8.10211 0.0658002C8.20912 0.0223656 8.32395 0 8.43994 0C8.55592 0 8.67075 0.0223656 8.77777 0.0658002C8.88478 0.109235 8.98186 0.172874 9.06337 0.253029L9.73974 0.910082C10.0868 1.24718 10.0868 1.78996 9.73974 2.12135L9.3398 2.50986L9.32804 2.52129L8.98691 2.85267L5.45802 6.28078H3.52889V4.41818L7.05779 0.990071ZM5.71681 0.675829L5.39332 0.990071L4.64638 1.71569C2.70548 1.74425 1.1763 3.2012 1.1763 5.25806C1.1763 6.59502 2.32319 8.36621 4.70519 10.4802C7.08719 8.36621 8.23408 6.60074 8.23408 5.25806V5.20093L9.29275 4.1725C9.36921 4.51531 9.41038 4.88097 9.41038 5.25806C9.41038 7.15495 7.84002 9.40035 4.70519 12C1.57036 9.40035 0 7.15495 0 5.25806C0 2.41273 2.23497 0.572985 4.70519 0.572985C5.04632 0.572985 5.38744 0.607266 5.71681 0.675829Z" fill="#6D6D6D"/>
</svg>
